#!OML:ASF I:\salsa\salsa 7_09\Patient 1\Session 1\dancermale.ASF
:FULLY-SPECIFIED
:DEGREES
1511
root 10.3516 17.3469 -8.66125 10.3308 24.2575 719.052
lowerback -2.89254 -0.292255 3.14628
upperback -2.67694 -0.431827 0.696795
thorax -1.14446 -0.25406 -1.05608
lowerneck -4.0998 -10.6293 -6.20174
upperneck 17.3011 -13.7275 -0.564795
head 6.33586 -7.0563 -0.14225
rclavicle -2.38542e-014 -7.7526e-015
rhumerus -18.585 -24.8438 -60.8777
rradius 93.3827
rwrist -8.20733
rhand -35.5739 -10.7124
rfingers 7.12502
rthumb -8.69859 -40.5132
lclavicle -2.38542e-014 -7.7526e-015
lhumerus -57.0302 -19.6772 105.096
lradius 100.95
lwrist 17.8657
lhand -6.03134 54.9447
lfingers 7.12502
lthumb 19.8022 -636.044
rfemur -22.8446 -4.08355 8.90072
rtibia 30.7003
rfoot -6.43798 -24.6222
rtoes 0.573093
lfemur -14.4703 -2.60952 -22.3374
ltibia 23.8699
lfoot -21.3786 16.9875
ltoes 7.041
1512
root 10.3741 17.3392 -8.69093 10.4704 24.2015 718.982
lowerback -2.91437 -0.435363 3.25942
upperback -2.77979 -0.621021 0.85697
thorax -1.24572 -0.351075 -0.957864
lowerneck -4.14252 -10.5835 -6.28377
upperneck 17.3777 -13.6476 -0.613522
head 6.36813 -7.02629 -0.144241
rclavicle -4.26145e-014 5.56597e-015
rhumerus -17.9228 -25.1932 -60.4135
rradius 92.495
rwrist -7.74693
rhand -35.5742 -10.1712
rfingers 7.12502
rthumb -8.69889 -39.9719
lclavicle -4.26145e-014 5.56597e-015
lhumerus -57.5302 -18.8339 104.69
lradius 100.944
lwrist 18.7208
lhand -6.50046 55.2986
lfingers 7.12502
lthumb 19.3512 -635.644
rfemur -22.8519 -3.79149 8.83121
rtibia 30.229
rfoot -6.60895 -24.8733
rtoes 0.872032
lfemur -14.7446 -2.39898 -22.3485
ltibia 23.9008
lfoot -21.4469 16.7517
ltoes 7.27936
1513
root 10.3978 17.3299 -8.725 10.5799 24.1335 718.937
lowerback -2.87412 -0.577178 3.26681
upperback -2.9086 -0.801989 1.09157
thorax -1.40497 -0.442335 -0.72272
lowerneck -4.18734 -10.5573 -6.4496
upperneck 17.5577 -13.5704 -0.75267
head 6.43421 -7.00943 -0.165737
rclavicle -3.91606e-014 9.93923e-015
rhumerus -17.2199 -25.3016 -59.9139
rradius 91.6931
rwrist -7.52368
rhand -35.6991 -9.87258
rfingers 7.12502
rthumb -8.81944 -39.6683
lclavicle -3.91606e-014 9.93923e-015
lhumerus -58.0326 -18.009 104.523
lradius 100.846
lwrist 19.6938
lhand -6.93804 55.6356
lfingers 7.12502
lthumb 18.9304 -635.266
rfemur -22.9486 -3.7006 8.72534
rtibia 29.9545
rfoot -6.73094 -25.0668
rtoes 1.34674
lfemur -15.0906 -2.18954 -22.3996
ltibia 24.1197
lfoot -21.5904 16.5176
ltoes 7.22818
1514
root 10.4299 17.3166 -8.75267 10.6155 23.9455 719.039
lowerback -2.90814 -0.697685 3.217
upperback -2.94735 -0.960451 1.24248
thorax -1.42811 -0.519627 -0.54249
lowerneck -4.23604 -10.5 -6.43112
upperneck 17.6997 -13.4346 -1.09028
head 6.45948 -6.96811 -0.267547
rclavicle 3.39176e-014 8.74653e-015
rhumerus -16.3306 -25.4026 -59.657
rradius 90.899
rwrist -7.44692
rhand -35.7552 -9.87798
rfingers 7.12502
rthumb -8.87356 -39.6714
lclavicle 3.39176e-014 8.74653e-015
lhumerus -58.5003 -17.2682 104.368
lradius 100.689
lwrist 20.4484
lhand -7.15534 55.8765
lfingers 7.12502
lthumb 18.7214 -635.004
rfemur -22.9494 -3.80304 8.45427
rtibia 29.8034
rfoot -6.60077 -25.0712
rtoes 1.00658
lfemur -15.205 -2.07432 -22.6942
ltibia 24.3114
lfoot -21.7982 16.3926
ltoes 7.41326
1515
root 10.4544 17.3064 -8.79418 10.6621 23.8841 719.018
lowerback -2.84302 -0.871069 3.37937
upperback -3.04196 -1.1869 1.34506
thorax -1.57132 -0.637234 -0.528765
lowerneck -4.28025 -10.3979 -6.33521
upperneck 17.877 -13.267 -1.30645
head 6.49735 -6.89845 -0.341918
rclavicle 6.92019e-014 2.38542e-015
rhumerus -15.3371 -25.4826 -59.7145
rradius 90.0611
rwrist -7.35407
rhand -35.8236 -9.82729
rfingers 7.12502
rthumb -8.93955 -39.6179
lclavicle 6.92019e-014 2.38542e-015
lhumerus -58.9399 -16.6601 104.131
lradius 100.509
lwrist 20.6364
lhand -7.04829 56.1229
lfingers 7.12502
lthumb 18.8244 -634.768
rfemur -23.2668 -3.96601 8.35803
rtibia 30.0381
rfoot -6.49415 -25.1703
rtoes 0.723407
lfemur -15.6835 -2.18361 -22.8117
ltibia 24.891
lfoot -22.0346 16.3727
ltoes 7.68372
1516
root 10.472 17.298 -8.84567 10.68 23.9052 718.966
lowerback -2.67742 -1.03725 3.57062
upperback -3.1148 -1.3997 1.4305
thorax -1.7497 -0.74932 -0.545714
lowerneck -4.46168 -10.3499 -6.17888
upperneck 18.1407 -13.1731 -1.50903
head 6.58524 -6.85939 -0.438202
rclavicle -3.62782e-014 -3.97569e-015
rhumerus -14.4043 -25.8099 -59.9708
rradius 89.3007
rwrist -7.039
rhand -35.9782 -9.38554
rfingers 7.12502
rthumb -9.08879 -39.1697
lclavicle -3.62782e-014 -3.97569e-015
lhumerus -59.2397 -16.3092 104.011
lradius 100.288
lwrist 20.2613
lhand -6.89611 56.2355
lfingers 7.12502
lthumb 18.9707 -634.67
rfemur -23.8113 -4.22889 8.31903
rtibia 30.6741
rfoot -6.57104 -25.225
rtoes 0.976393
lfemur -16.3924 -2.38454 -22.8508
ltibia 25.8184
lfoot -22.3733 16.3324
ltoes 8.00843
1517
root 10.4944 17.2858 -8.88298 10.6454 23.6417 718.972
lowerback -2.68312 -1.071 3.6657
upperback -3.09197 -1.44645 1.48149
thorax -1.72609 -0.773455 -0.547305
lowerneck -4.76073 -10.3372 -5.97444
upperneck 18.4784 -13.1047 -1.82608
head 6.70706 -6.83828 -0.588371
rclavicle -1.31695e-015 -6.36111e-015
rhumerus -13.5926 -26.0666 -60.1343
rradius 88.6315
rwrist -6.67985
rhand -36.3901 -9.10956
rfingers 7.12502
rthumb -9.48624 -38.876
lclavicle -1.31695e-015 -6.36111e-015
lhumerus -59.4978 -16.1636 104.09
lradius 100.089
lwrist 19.6708
lhand -6.98198 56.3665
lfingers 7.12502
lthumb 18.8882 -634.531
rfemur -24.3502 -4.45203 8.20862
rtibia 31.4399
rfoot -6.61554 -24.9666
rtoes 1.23385
lfemur -16.8312 -2.34032 -23.017
ltibia 26.604
lfoot -22.8375 16.1802
ltoes 8.77728
1518
root 10.5076 17.27 -8.92182 10.6146 23.2318 719.07
lowerback -2.64682 -1.08201 3.60052
upperback -3.07113 -1.45932 1.50102
thorax -1.72298 -0.7783 -0.490554
lowerneck -5.01771 -10.2735 -5.912
upperneck 18.7864 -12.9883 -1.9447
head 6.83578 -6.78829 -0.650474
rclavicle -4.29872e-015 6.36111e-015
rhumerus -12.7676 -26.2184 -60.3987
rradius 87.8737
rwrist -6.20191
rhand -36.9153 -9.12176
rfingers 7.12502
rthumb -9.99296 -38.8645
lclavicle -4.29872e-015 6.36111e-015
lhumerus -59.7097 -16.0923 104.205
lradius 99.8854
lwrist 19.0733
lhand -7.23599 56.6037
lfingers 7.12502
lthumb 18.6438 -634.27
rfemur -25.0459 -4.53438 8.02106
rtibia 32.4072
rfoot -6.53656 -24.6712
rtoes 1.50864
lfemur -17.2846 -1.97225 -23.255
ltibia 27.4463
lfoot -23.3273 15.8566
ltoes 9.68331
1519
root 10.5122 17.2516 -8.97048 10.5131 22.8581 719.191
lowerback -2.42333 -1.10828 3.49
upperback -3.0464 -1.48375 1.49382
thorax -1.82053 -0.789764 -0.431864
lowerneck -5.15317 -10.2076 -5.96356
upperneck 18.9318 -12.9093 -1.81117
head 6.91747 -6.74355 -0.608794
rclavicle -5.20816e-014 -1.23246e-014
rhumerus -11.9431 -26.3878 -60.6966
rradius 87.0474
rwrist -6.04048
rhand -37.1551 -9.17645
rfingers 7.12502
rthumb -10.2243 -38.908
lclavicle -5.20816e-014 -1.23246e-014
lhumerus -59.809 -16.1108 104.299
lradius 99.6699
lwrist 18.5319
lhand -7.41707 56.6955
lfingers 7.12502
lthumb 18.4697 -634.161
rfemur -25.8532 -4.4825 7.8042
rtibia 33.6326
rfoot -6.56664 -24.4511
rtoes 2.13786
lfemur -17.7531 -1.5925 -23.4824
ltibia 28.3479
lfoot -23.7843 15.6
ltoes 10.5194
